<?xml version="1.0" standalone="no"?>
<!DOCTYPE svg PUBLIC "-//W3C//DTD SVG 20010904//EN"
 "http://www.w3.org/TR/2001/REC-SVG-20010904/DTD/svg10.dtd">
<svg version="1.0" xmlns="http://www.w3.org/2000/svg"
 width="225.000000pt" height="225.000000pt" viewBox="0 0 225.000000 225.000000"
 preserveAspectRatio="xMidYMid meet">
<metadata>
Created by potrace 1.16, written by Peter Selinger 2001-2019
</metadata>
<g transform="translate(0.000000,225.000000) scale(0.100000,-0.100000)"
fill="#000000" stroke="none">
<path d="M1036 2094 c-239 -47 -399 -224 -427 -474 -9 -79 -8 -92 18 -182 23
-81 37 -108 82 -166 30 -37 72 -81 93 -97 21 -16 38 -33 38 -39 0 -6 7 -30 16
-53 18 -47 34 -48 34 -2 0 33 -1 33 37 18 15 -6 60 -19 98 -28 69 -17 70 -18
85 -62 8 -24 21 -48 29 -53 11 -7 11 -10 0 -18 -11 -7 -11 -8 2 -6 9 2 29 -10
43 -25 16 -17 33 -26 41 -23 8 3 15 1 15 -4 0 -6 17 -10 38 -10 37 0 79 21 95
47 12 20 31 16 72 -17 31 -25 47 -30 91 -30 44 0 59 5 86 29 35 30 50 30 85
-1 12 -11 37 -23 55 -27 l33 -7 3 -323 c2 -231 -1 -328 -9 -337 -9 -11 -84
-14 -405 -14 l-394 0 -1 218 c0 119 -2 225 -4 235 -2 9 -14 28 -27 42 -22 24
-28 25 -143 24 -70 0 -112 -4 -100 -8 l20 -8 -20 -5 c-11 -3 -1 -6 23 -7 27
-1 42 3 42 12 0 9 2 9 8 0 4 -7 28 -10 62 -8 45 3 59 0 78 -17 25 -25 27 -60
15 -326 l-6 -152 -139 0 -138 0 -1 233 c-1 150 -4 216 -10 187 -4 -25 -8 -70
-9 -100 -2 -43 -4 -50 -10 -30 -5 15 -8 -28 -9 -112 -1 -75 -4 -144 -8 -154
-5 -13 -3 -15 7 -9 9 5 11 4 6 -3 -8 -14 -152 -17 -160 -3 -3 4 -6 63 -7 130
-1 140 -9 154 -15 26 -2 -47 -9 -95 -15 -106 -8 -15 -8 -19 0 -15 16 10 13 -1
-6 -24 -15 -17 -30 -20 -115 -20 -91 0 -116 -8 -86 -26 7 -4 8 -3 4 4 -5 9 5
11 34 8 22 -2 43 -6 47 -10 3 -3 25 -7 47 -7 39 -1 39 -2 11 -9 -49 -12 164
-16 953 -18 l732 -2 0 30 0 30 -106 0 c-93 0 -105 2 -100 16 3 9 6 163 6 342
l0 327 30 17 c16 9 38 34 47 55 21 45 30 53 61 53 20 0 22 5 22 48 -1 184
-118 383 -289 492 -59 37 -71 50 -71 72 -1 113 -59 240 -155 334 -84 83 -163
126 -277 149 -89 17 -91 17 -182 -1z m263 -78 c129 -52 221 -149 271 -285 18
-47 21 -73 18 -167 -3 -104 -5 -114 -40 -185 -66 -134 -197 -233 -343 -260
-176 -33 -376 56 -473 209 -90 141 -94 350 -9 494 54 92 176 183 287 215 73
21 212 11 289 -21z m387 -491 c4 -8 10 -12 15 -9 5 3 9 0 9 -6 0 -6 5 -8 10
-5 6 3 10 2 10 -4 0 -5 6 -11 13 -13 8 -2 39 -31 69 -65 47 -53 73 -95 118
-193 15 -31 32 -126 28 -155 -2 -24 -8 -31 -30 -33 -17 -2 -28 -9 -28 -19 0
-34 -33 -82 -67 -98 -30 -15 -42 -15 -75 -6 -63 19 -78 54 -78 186 0 109 -12
172 -44 248 -13 30 -14 45 -5 85 21 93 41 124 55 87z m-79 -191 c-3 -4 -1 -16
6 -28 14 -26 16 -36 23 -168 7 -119 -2 -161 -42 -199 -19 -18 -37 -24 -71 -24
-38 0 -49 5 -74 33 -27 30 -29 38 -29 113 l0 81 45 40 c25 22 66 67 91 99 25
32 48 59 51 59 4 0 3 -3 0 -6z m-229 -269 c7 -25 11 -53 11 -63 -1 -9 -5 -3
-9 13 l-8 30 -2 -35 c-1 -19 -2 -37 -3 -40 0 -8 -37 -40 -37 -32 0 4 -5 0 -10
-8 -15 -23 -100 -20 -127 5 -28 26 -40 60 -35 95 4 25 9 29 51 35 25 4 66 15
91 25 63 25 65 25 78 -25z m-938 -875 c0 -5 -5 -10 -11 -10 -5 0 -7 5 -4 10 3
6 8 10 11 10 2 0 4 -4 4 -10z m30 -36 c0 -2 -17 -4 -37 -3 -29 0 -33 2 -18 8
18 7 55 4 55 -5z"/>
<path d="M1218 1813 c7 -3 16 -2 19 1 4 3 -2 6 -13 5 -11 0 -14 -3 -6 -6z"/>
<path d="M1306 1806 c17 -8 39 -24 48 -37 9 -13 16 -18 16 -12 0 16 -58 63
-78 63 -9 -1 -3 -7 14 -14z"/>
<path d="M1134 1758 l-55 -52 33 -11 c31 -11 36 -9 79 29 25 23 44 43 42 45
-2 3 -22 -14 -46 -36 -38 -38 -44 -41 -65 -29 -24 13 -24 13 28 59 29 26 49
47 45 47 -3 0 -31 -23 -61 -52z"/>
<path d="M1310 1740 c6 -11 13 -20 16 -20 2 0 0 9 -6 20 -6 11 -13 20 -16 20
-2 0 0 -9 6 -20z"/>
<path d="M1372 1700 c0 -19 2 -27 5 -17 2 9 2 25 0 35 -3 9 -5 1 -5 -18z"/>
<path d="M1320 1682 c0 -14 -109 -129 -147 -153 -15 -10 -23 -19 -16 -19 15 0
126 102 154 142 12 16 18 32 15 35 -3 4 -6 1 -6 -5z"/>
<path d="M1356 1643 c-6 -14 -5 -15 5 -6 7 7 10 15 7 18 -3 3 -9 -2 -12 -12z"/>
<path d="M1068 1643 c12 -2 30 -2 40 0 9 3 -1 5 -23 4 -22 0 -30 -2 -17 -4z"/>
<path d="M1159 1618 c7 -10 11 -25 7 -33 -3 -9 -2 -13 4 -10 15 10 12 31 -7
46 -16 13 -17 12 -4 -3z"/>
<path d="M930 1553 l-65 -68 68 65 c62 60 72 70 64 70 -1 0 -32 -30 -67 -67z"/>
<path d="M1280 1553 l-65 -68 68 65 c62 60 72 70 64 70 -1 0 -32 -30 -67 -67z"/>
<path d="M1073 1593 c9 -2 23 -2 30 0 6 3 -1 5 -18 5 -16 0 -22 -2 -12 -5z"/>
<path d="M1019 1563 l-24 -28 28 24 c25 23 32 31 24 31 -2 0 -14 -12 -28 -27z"/>
<path d="M1127 1579 c7 -7 15 -10 18 -7 3 3 -2 9 -12 12 -14 6 -15 5 -6 -5z"/>
<path d="M1047 1533 c-18 -18 8 -62 38 -63 5 0 -1 7 -13 16 -12 8 -22 22 -22
30 0 16 36 19 45 4 3 -5 11 -10 18 -10 6 0 2 7 -9 15 -20 15 -46 19 -57 8z"/>
<path d="M929 1473 l-34 -38 38 34 c20 19 37 36 37 38 0 8 -8 0 -41 -34z"/>
<path d="M1190 1480 c-9 -6 -10 -10 -3 -10 6 0 15 5 18 10 8 12 4 12 -15 0z"/>
<path d="M855 1469 c-4 -6 -5 -12 -2 -15 2 -3 7 2 10 11 7 17 1 20 -8 4z"/>
<path d="M1118 1463 c12 -2 30 -2 40 0 9 3 -1 5 -23 4 -22 0 -30 -2 -17 -4z"/>
<path d="M841 1410 c-1 -46 17 -79 58 -107 36 -24 76 -29 101 -13 10 6 4 8
-21 4 -37 -6 -84 11 -108 40 -7 8 -16 36 -21 63 -7 43 -8 44 -9 13z"/>
<path d="M892 1405 c0 -16 2 -22 5 -12 2 9 2 23 0 30 -3 6 -5 -1 -5 -18z"/>
<path d="M1060 1407 c-8 -7 -22 -21 -30 -32 -9 -13 -4 -11 15 6 17 15 37 29
45 32 13 5 13 5 0 6 -8 0 -22 -5 -30 -12z"/>
<path d="M1114 1401 c3 -5 -17 -29 -44 -55 -27 -25 -46 -46 -42 -46 4 0 32 25
62 55 38 39 49 55 37 55 -10 0 -16 -4 -13 -9z"/>
<path d="M912 1354 c10 -10 20 -16 22 -13 3 3 -5 11 -17 18 -21 13 -21 12 -5
-5z"/>
<path d="M881 1000 c0 -8 4 -22 9 -30 12 -18 12 -2 0 25 -6 13 -9 15 -9 5z"/>
<path d="M1064 935 c-9 -22 -89 -30 -118 -11 -23 15 -25 14 -23 -3 1 -11 4
-18 8 -15 13 8 39 -8 32 -20 -3 -6 -1 -6 8 2 7 6 20 12 29 12 12 0 12 -2 2 -9
-11 -6 -9 -9 6 -13 33 -9 69 3 94 30 22 24 10 23 -22 -3 -26 -21 -50 -26 -50
-10 0 8 6 12 13 9 8 -3 18 6 25 21 6 14 9 25 6 25 -2 0 -7 -7 -10 -15z"/>
<path d="M728 903 c7 -3 16 -2 19 1 4 3 -2 6 -13 5 -11 0 -14 -3 -6 -6z"/>
<path d="M1156 694 c-13 -12 -16 -39 -16 -130 0 -103 2 -116 22 -139 l22 -25
217 0 c265 0 249 -10 249 155 0 166 17 155 -255 155 -190 0 -226 -2 -239 -16z
m442 -136 l3 -108 -204 0 -204 0 -6 97 c-5 65 -3 101 5 110 8 11 52 13 207 11
l196 -3 3 -107z"/>
<path d="M675 670 c3 -5 8 -10 11 -10 2 0 4 5 4 10 0 6 -5 10 -11 10 -5 0 -7
-4 -4 -10z"/>
<path d="M848 467 c7 -8 7 -18 2 -27 -14 -22 -12 -36 6 -54 26 -27 34 -18 34
39 0 53 -1 55 -26 55 -20 0 -24 -3 -16 -13z"/>
</g>
</svg>
