<?xml version="1.0" standalone="no"?>
<!DOCTYPE svg PUBLIC "-//W3C//DTD SVG 20010904//EN"
 "http://www.w3.org/TR/2001/REC-SVG-20010904/DTD/svg10.dtd">
<svg version="1.0" xmlns="http://www.w3.org/2000/svg"
 width="225.000000pt" height="225.000000pt" viewBox="0 0 225.000000 225.000000"
 preserveAspectRatio="xMidYMid meet">
<metadata>
Created by potrace 1.16, written by Peter Selinger 2001-2019
</metadata>
<g transform="translate(0.000000,225.000000) scale(0.100000,-0.100000)"
fill="#000000" stroke="none">
<path d="M528 2080 c-58 -45 -79 -193 -44 -313 14 -47 15 -65 5 -96 -9 -31 -8
-49 5 -94 23 -78 21 -84 -28 -137 -51 -55 -78 -104 -99 -180 -32 -115 -28
-185 7 -114 22 47 28 40 15 -16 -12 -50 -6 -142 13 -216 l12 -49 7 46 c4 26
15 64 25 85 l18 38 12 -65 c15 -78 52 -168 54 -129 0 17 20 -14 63 -99 l62
-124 5 69 5 69 14 -33 14 -34 11 27 c11 25 13 22 50 -62 21 -48 45 -108 54
-133 l16 -45 10 33 c5 17 13 32 17 32 5 0 22 -27 39 -60 17 -33 34 -60 39 -60
4 0 16 -21 26 -47 15 -38 20 -43 25 -28 6 16 14 9 54 -45 26 -36 57 -83 68
-104 18 -35 22 -38 32 -23 6 10 38 56 71 102 56 79 82 106 69 70 -4 -8 -4 -15
0 -15 3 0 15 22 27 50 12 27 25 47 29 45 5 -3 23 22 42 55 18 33 36 60 41 60
4 0 10 -14 14 -31 5 -28 8 -25 38 53 18 46 43 106 56 133 l23 50 6 -30 6 -30
22 40 23 40 -5 -80 -5 -80 65 129 c35 71 64 120 64 110 1 -33 29 30 49 109
l18 71 22 -42 c11 -22 21 -50 21 -62 0 -11 4 -20 9 -20 5 0 14 38 21 85 11 77
9 119 -6 180 -4 17 -2 16 15 -5 11 -14 21 -32 21 -40 0 -12 2 -12 8 -2 11 17
-6 125 -29 188 -19 49 -35 74 -102 157 l-28 35 17 67 c14 55 15 73 5 106 -10
34 -9 48 6 92 26 78 24 209 -5 264 -26 50 -63 77 -91 68 -27 -8 -105 -70 -193
-153 l-71 -67 -279 -1 c-231 0 -281 2 -291 14 -18 23 -178 157 -221 186 -46
31 -56 32 -88 6z m161 -197 c0 -7 15 -28 31 -47 17 -19 26 -36 20 -38 -6 -2
-2 -18 10 -40 l20 -38 -25 -6 c-29 -7 -34 -44 -10 -64 14 -12 14 -15 -1 -31
-10 -11 -31 -19 -47 -19 -29 0 -29 1 -13 19 16 17 16 19 -6 24 -17 5 -20 9
-11 18 8 8 9 18 3 29 -11 21 13 60 38 61 9 0 1 7 -18 16 -68 29 -104 85 -64
100 15 5 15 7 0 15 -9 5 -21 18 -27 30 -10 18 -9 20 6 15 13 -6 13 -2 -4 19
-12 15 -21 34 -21 42 0 17 117 -86 119 -105z m25 85 c42 -32 103 -98 92 -98
-4 0 -38 29 -76 65 -75 70 -81 84 -16 33z m803 -37 c-39 -38 -74 -67 -77 -64
-6 6 127 133 140 133 5 0 -23 -31 -63 -69z m143 16 c-18 -23 -19 -29 -7 -24
25 9 21 -9 -6 -30 -23 -17 -24 -18 -4 -33 19 -16 19 -16 -7 -47 -14 -17 -39
-36 -56 -43 l-29 -12 22 -18 c27 -22 34 -100 9 -100 -12 0 -11 -4 3 -20 18
-20 17 -20 -12 -20 -16 0 -37 6 -47 13 -18 13 -18 15 -1 40 21 33 14 54 -20
63 -24 6 -25 8 -10 24 9 10 17 29 19 43 1 13 12 37 24 52 12 15 22 31 22 36 0
4 26 34 58 66 58 59 82 65 42 10z m-1085 -67 c3 -6 0 -10 -7 -10 -15 0 -38 19
-38 32 0 10 36 -8 45 -22z m1140 10 c-10 -11 -25 -20 -34 -20 -12 0 -9 6 9 20
33 26 48 26 25 0z m-1105 -119 c28 -17 31 -21 14 -21 -27 0 -74 37 -74 58 0
14 1 14 13 0 6 -9 28 -26 47 -37z m1066 2 c-15 -13 -37 -23 -49 -23 -17 0 -13
6 21 26 23 14 42 31 43 37 0 7 3 6 6 -2 3 -8 -6 -24 -21 -38z m-760 -52 c18
-12 18 -12 -1 -7 -11 2 -31 8 -45 12 -21 6 -20 3 13 -28 20 -20 37 -41 37 -49
0 -8 -6 -5 -15 8 -8 11 -37 35 -64 52 -73 47 -74 63 -2 41 32 -9 66 -23 77
-29z m548 34 c-3 -8 -28 -28 -55 -46 -27 -17 -56 -41 -64 -52 -17 -25 -20 -15
-4 14 5 11 25 29 42 40 l32 21 -30 -7 c-16 -3 -39 -8 -50 -11 -42 -10 17 19
75 37 30 9 56 18 57 18 1 1 0 -6 -3 -14z m-874 -127 c-21 -38 -21 -39 -3 -29
20 10 20 10 0 -33 -19 -41 -21 -43 -38 -28 -20 17 -24 74 -9 122 7 22 8 21 9
-13 1 -45 10 -42 37 12 12 26 20 35 23 24 1 -9 -7 -34 -19 -55z m1111 22 c1
38 2 41 9 20 15 -48 11 -114 -8 -131 -17 -15 -20 -13 -39 28 -20 43 -18 54 5
31 18 -18 14 -2 -8 34 -11 18 -20 42 -20 53 0 13 10 3 30 -30 l30 -50 1 45z
m-663 -93 c24 -64 36 -154 27 -197 l-7 -32 -24 22 c-14 14 -38 23 -61 25 -21
1 -48 7 -60 13 -12 7 -35 12 -52 12 -17 0 -31 4 -31 8 0 14 23 32 42 32 12 0
15 5 11 16 -5 13 -2 15 18 9 13 -4 42 -16 63 -27 31 -15 37 -16 27 -4 -21 25
3 19 33 -9 l26 -24 -1 22 c0 12 -10 61 -22 109 -25 95 -19 107 11 25z m202 27
c-13 -32 -40 -157 -40 -180 0 -10 10 -4 26 15 14 17 30 31 36 31 6 0 5 -7 -3
-16 -8 -9 6 -6 36 10 26 14 54 26 61 26 17 0 18 -17 2 -23 -7 -3 -1 -6 13 -6
15 -1 32 -8 39 -16 11 -13 8 -15 -14 -15 -15 0 -43 -7 -63 -15 -19 -8 -46 -15
-58 -15 -13 0 -37 -11 -53 -25 l-30 -25 -6 34 c-9 45 9 153 34 212 22 50 38
57 20 8z m-510 -99 c-5 -57 -7 -65 -14 -42 -8 25 -1 91 11 110 9 14 9 4 3 -68z
m808 2 c2 -32 0 -57 -6 -61 -7 -4 -12 19 -14 63 -4 82 13 80 20 -2z m-873 -3
c-8 -26 -19 -52 -26 -58 -13 -12 -7 15 17 72 19 48 25 39 9 -14z m940 -6 c15
-53 14 -74 -3 -41 -13 23 -26 93 -19 93 4 0 13 -23 22 -52z m-1026 -20 c-8 -7
-21 -21 -28 -31 -12 -15 -12 -17 4 -11 15 6 14 2 -6 -26 -17 -23 -20 -34 -11
-37 18 -7 15 -21 -7 -28 -27 -8 -36 -34 -9 -27 18 4 14 -4 -20 -54 -22 -32
-43 -70 -47 -84 -6 -24 -6 -24 19 5 25 29 25 28 -7 -42 -17 -40 -35 -72 -38
-73 -11 0 9 116 25 148 19 36 18 36 -21 21 l-28 -10 21 23 c20 21 54 80 54 93
0 3 -7 5 -15 5 -20 0 36 92 73 119 31 23 67 30 41 9z m1121 2 c10 -6 40 -37
65 -70 40 -52 44 -60 26 -60 -28 0 -27 -7 10 -64 l30 -48 -26 6 c-25 6 -26 6
-10 -18 15 -22 39 -145 31 -154 -2 -1 -20 30 -40 70 -32 64 -33 69 -11 45 14
-15 25 -25 25 -22 0 18 -34 82 -62 118 -30 37 -31 40 -10 35 30 -8 28 10 -3
24 -27 12 -32 24 -12 31 8 3 6 13 -10 35 -12 17 -18 32 -12 34 5 2 1 13 -11
26 -22 23 -12 29 20 12z m-114 -125 c8 -44 1 -142 -12 -155 -6 -6 -8 20 -6 68
l3 77 -17 -33 c-21 -41 -55 -65 -130 -93 -104 -38 -120 -73 -58 -122 19 -16
40 -39 45 -50 7 -16 8 -5 5 38 -6 72 12 53 21 -23 4 -37 0 -60 -17 -100 -12
-28 -28 -57 -36 -63 -8 -6 -14 -22 -14 -35 0 -30 -65 -103 -107 -121 -45 -18
-46 -17 -23 15 11 15 24 42 29 60 9 32 9 32 -12 17 -38 -26 -48 -18 -26 20 25
41 19 87 -14 110 -30 21 -155 20 -185 -1 -27 -19 -30 -78 -6 -112 20 -28 10
-41 -17 -23 -12 7 -23 10 -26 8 -7 -8 27 -81 45 -96 15 -12 14 -13 -13 -6 -66
15 -135 79 -135 126 0 10 -15 41 -32 70 -27 42 -33 62 -32 108 0 31 5 65 11
76 9 16 11 7 7 -45 l-5 -65 16 35 c9 19 29 45 45 58 53 42 32 81 -57 107 -65
19 -111 52 -135 95 l-20 35 5 -78 c2 -50 1 -75 -6 -68 -15 15 -20 133 -7 166
l12 30 13 -38 c14 -40 47 -82 77 -98 16 -8 17 -7 8 16 -12 31 -13 115 -2 115
4 -1 16 -15 27 -32 28 -44 68 -65 150 -78 81 -13 116 -34 40 -24 l-50 7 19
-22 c17 -18 18 -26 8 -59 -20 -64 -32 -116 -32 -136 0 -19 1 -19 23 1 27 26
58 35 75 24 10 -6 8 -10 -10 -16 -37 -12 75 -26 151 -19 55 6 62 9 47 19 -13
10 -14 14 -4 17 21 8 67 -12 83 -35 8 -12 15 -17 15 -12 -1 18 -27 121 -41
158 -11 33 -11 38 7 58 l19 22 -55 -6 c-78 -9 -39 12 46 24 83 12 116 29 145
75 22 36 23 36 32 16 7 -15 5 -35 -5 -67 -9 -25 -12 -45 -7 -45 20 0 89 79 95
108 9 42 22 40 30 -3z m-202 19 c38 -15 3 -54 -48 -54 -32 0 -32 7 -4 37 23
25 28 26 52 17z m-462 -21 c27 -24 22 -33 -21 -33 -39 0 -68 20 -56 40 10 16
56 12 77 -7z m107 -23 c31 -39 31 -53 -1 -27 -22 17 -52 67 -41 67 5 0 24 -18
42 -40z m226 10 c-13 -26 -42 -50 -60 -50 -3 0 9 18 26 40 38 47 56 53 34 10z
m-665 -77 l-21 -47 24 22 c31 29 34 28 29 -10 -1 -18 1 -58 6 -88 8 -44 11
-50 17 -33 l7 23 18 -23 c9 -12 28 -46 42 -75 27 -56 23 -55 -40 2 l-34 31 4
-47 c2 -27 0 -48 -4 -48 -16 0 -39 50 -48 105 -10 64 -20 83 -20 41 0 -41 -18
-21 -25 28 -6 37 -1 56 27 119 18 42 34 69 36 62 2 -8 -6 -36 -18 -62z m1120
-95 c0 -15 -5 -39 -12 -55 l-11 -28 -7 30 c-6 28 -7 26 -14 -20 -7 -52 -34
-116 -51 -122 -6 -2 -9 16 -7 44 l4 48 -39 -37 c-21 -21 -42 -38 -45 -38 -11
0 34 94 48 103 8 4 14 16 14 25 1 15 2 15 15 -1 12 -17 14 -15 20 28 4 25 5
64 2 86 l-5 41 21 -19 c12 -10 25 -22 29 -28 14 -18 8 2 -12 46 -11 24 -20 51
-20 59 0 8 16 -19 35 -60 19 -41 35 -87 35 -102z m-500 -39 c9 -5 -18 -9 -72
-9 -47 0 -95 -3 -105 -6 -13 -5 -15 -4 -8 4 26 28 143 35 185 11z m528 -139
l-1 -45 -6 39 -6 38 -42 -88 c-23 -49 -44 -96 -47 -104 -2 -8 -5 -3 -5 12 -1
14 14 55 33 91 19 35 40 84 47 108 12 39 14 41 20 18 4 -13 7 -44 7 -69z
m-1121 -135 c2 -16 -16 12 -41 64 -25 52 -47 88 -50 80 -3 -8 -7 -23 -9 -34
-3 -11 -5 -2 -6 20 -2 93 9 92 56 -7 24 -51 47 -106 50 -123z m79 36 c3 -10 8
-11 18 -2 11 9 15 6 21 -16 4 -19 9 -23 14 -14 10 16 71 -109 77 -159 3 -30 3
-31 -5 -10 -5 14 -18 45 -30 70 -20 43 -21 44 -21 15 l-1 -30 -14 33 c-14 32
-55 47 -55 20 0 -8 -7 -5 -15 6 -16 21 -20 91 -8 123 7 17 8 17 11 -2 2 -11 5
-26 8 -34z m897 -15 c-1 -45 -23 -102 -31 -78 -7 23 -38 12 -55 -20 l-16 -33
-1 35 -1 35 -14 -25 c-8 -14 -22 -47 -32 -75 -10 -29 -19 -43 -21 -33 -2 9 14
55 35 102 29 66 40 83 50 74 10 -8 13 -4 13 16 0 26 13 35 25 16 10 -17 25 -1
25 28 0 20 3 23 12 14 6 -6 11 -31 11 -56z m-597 -228 c31 -60 30 -67 -2 -37
-30 28 -54 70 -54 95 0 27 27 -2 56 -58z m290 -9 c-23 -34 -46 -51 -46 -34 0
9 41 88 54 104 24 31 17 -31 -8 -70z m-390 -21 c18 -95 16 -106 -6 -38 -18 52
-27 130 -14 117 3 -3 12 -39 20 -79z m480 20 c-4 -29 -13 -66 -21 -83 -16 -35
-19 -16 -6 35 5 19 12 52 16 74 9 57 19 35 11 -26z m-295 17 c5 4 9 3 9 -2 0
-4 18 -8 40 -8 22 -1 40 3 40 8 0 4 5 5 10 2 6 -3 10 1 10 9 0 27 18 17 25
-13 4 -18 1 -39 -7 -53 -12 -22 -13 -22 -16 -2 -3 18 -10 20 -62 20 -52 -1
-60 -3 -60 -20 0 -15 -3 -16 -15 -6 -16 13 -20 47 -9 75 6 16 8 16 16 1 5 -9
13 -14 19 -11z m15 -118 c32 -8 52 -6 88 6 l46 16 0 -25 c0 -14 -4 -23 -10
-19 -6 3 -23 -3 -39 -14 -32 -23 -51 -27 -51 -10 0 8 -4 8 -14 -1 -12 -9 -21
-7 -44 10 -17 12 -35 19 -41 16 -7 -5 -11 3 -11 19 0 22 3 26 18 20 9 -4 36
-12 58 -18z"/>
</g>
</svg>
