<?xml version="1.0" standalone="no"?>
<!DOCTYPE svg PUBLIC "-//W3C//DTD SVG 20010904//EN"
 "http://www.w3.org/TR/2001/REC-SVG-20010904/DTD/svg10.dtd">
<svg version="1.0" xmlns="http://www.w3.org/2000/svg"
 width="1536.000000pt" height="1024.000000pt" viewBox="0 0 1536.000000 1024.000000"
 preserveAspectRatio="xMidYMid meet">
<metadata>
Created by potrace 1.16, written by Peter Selinger 2001-2019
</metadata>
<g transform="translate(0.000000,1024.000000) scale(0.100000,-0.100000)"
fill="#000000" stroke="none">
<path d="M11209 9106 c-67 -18 -136 -62 -170 -108 -45 -63 -66 -146 -74 -295
-5 -89 -11 -131 -19 -130 -6 1 -12 -11 -14 -26 l-3 -28 30 16 c36 18 38 25 45
175 10 195 50 278 161 335 52 26 69 30 144 30 95 0 131 -13 189 -68 55 -52 75
-122 80 -279 4 -134 4 -138 -16 -138 -20 0 -40 -35 -28 -47 11 -11 57 21 72
49 32 61 10 297 -35 386 -58 114 -211 169 -362 128z"/>
<path d="M6915 8436 c-119 -29 -237 -121 -290 -226 -41 -82 -45 -130 -45 -571
0 -360 -2 -423 -15 -443 -9 -13 -20 -39 -26 -57 -21 -70 -2 -657 24 -722 9
-25 11 -273 7 -1122 -3 -599 -5 -1091 -4 -1093 1 -1 49 5 107 15 l107 17 2
1880 3 1881 28 57 c31 63 84 114 156 150 44 22 58 23 292 26 l245 3 37 -59
c44 -71 106 -116 180 -132 37 -8 279 -10 812 -8 l760 3 51 27 c55 29 94 69
124 128 l19 38 148 7 c322 16 441 -14 527 -132 71 -98 66 20 77 -1703 6 -855
13 -1996 18 -2535 5 -675 4 -991 -4 -1015 -6 -21 -23 -43 -44 -57 l-34 -23
-787 0 -787 0 -6 128 c-4 70 -7 167 -7 217 l0 90 -26 -50 c-44 -83 -105 -185
-110 -185 -3 0 -2 5 1 10 5 9 -19 43 -27 39 -2 0 -23 4 -48 11 -35 10 -67 10
-140 1 -52 -6 -129 -11 -171 -10 -133 2 -354 -70 -484 -158 -38 -27 -125 -102
-193 -168 -144 -140 -137 -134 -127 -115 6 12 5 13 -6 2 -7 -6 -24 -12 -36
-12 -20 0 -22 -3 -13 -19 8 -17 5 -24 -25 -46 -19 -15 -46 -28 -60 -29 -14 0
-25 -4 -25 -8 0 -5 -17 -7 -37 -7 l-38 2 35 6 c32 6 30 7 -25 13 -33 3 -64 3
-69 0 -16 -9 -70 -11 -81 -2 -5 4 -28 10 -50 14 -22 3 -49 8 -60 10 -11 2 -23
5 -26 5 -3 1 -15 10 -27 21 -12 12 -22 16 -22 10 0 -5 -5 -10 -11 -10 -5 0 -7
5 -4 10 3 6 2 10 -4 10 -5 0 -12 -6 -14 -12 -4 -10 -6 -9 -6 1 -1 10 -7 7 -20
-8 -17 -19 -25 -21 -87 -15 -126 11 -247 3 -260 -17 -3 -5 -10 -9 -16 -9 -6 0
-8 3 -4 7 12 12 -113 32 -206 32 -49 1 -88 5 -88 9 0 5 -13 8 -30 8 -16 0 -30
-3 -30 -7 0 -9 -37 -6 -62 5 -10 4 -50 5 -90 1 -40 -3 -95 -8 -122 -10 -26 -3
-53 -8 -60 -13 -19 -14 -66 -13 -72 2 -3 8 -12 17 -20 20 -9 4 -12 2 -8 -5 4
-8 0 -8 -14 0 -14 8 -23 8 -27 1 -4 -7 -55 -10 -136 -9 -117 2 -129 4 -129 20
0 10 -4 21 -10 24 -6 4 -10 -14 -10 -46 0 -29 -2 -50 -5 -48 -7 8 -25 330 -26
474 0 72 -3 122 -6 112 -5 -19 -43 -24 -43 -4 0 8 -4 7 -10 -3 -7 -11 -10 -6
-10 22 0 27 6 41 22 52 12 8 26 12 31 9 6 -3 7 -1 3 5 -3 6 -2 13 4 17 5 3 10
36 10 73 1 116 47 181 141 197 34 6 40 11 49 43 6 21 14 69 17 109 l6 72 96
34 c306 110 779 238 1056 288 l120 21 15 -24 c8 -12 46 -56 85 -96 79 -83 180
-140 297 -168 l66 -16 20 -77 c11 -42 23 -94 28 -116 9 -38 11 -40 52 -43 29
-2 44 1 48 11 2 7 -6 52 -19 98 -14 46 -51 187 -83 313 l-59 229 -130 -7
c-458 -22 -1102 -187 -1945 -498 -151 -56 -171 -65 -167 -83 2 -11 43 -159 91
-329 84 -301 95 -360 77 -394 -5 -9 -15 -92 -22 -184 -7 -93 -15 -168 -19
-168 -8 0 -79 223 -135 425 -50 178 -64 217 -65 178 0 -14 -8 -24 -22 -29 -13
-4 -26 -12 -30 -18 -5 -7 -13 -4 -23 9 -15 19 -16 18 -10 -20 8 -52 45 -177
57 -191 6 -8 -18 -12 -85 -13 -121 -2 -128 3 -162 129 -35 135 -33 138 93 141
74 2 74 2 69 28 -3 14 -10 38 -16 54 l-11 27 -108 0 c-91 0 -111 3 -124 18
-16 18 -58 169 -58 208 0 38 36 54 123 54 l78 0 -3 32 c-3 33 2 36 75 52 19 5
27 13 27 27 0 19 -4 21 -42 15 -24 -3 -98 -7 -166 -8 -100 -2 -125 1 -138 14
-17 17 -53 154 -54 204 0 17 6 37 13 43 8 6 89 13 200 17 209 8 219 5 232 -60
4 -17 11 -47 16 -68 l9 -36 65 21 c48 16 64 25 61 37 -17 62 -17 79 3 99 19
19 33 21 183 22 90 1 171 0 181 -1 10 -1 52 10 95 24 42 14 142 44 222 67 80
23 151 45 158 48 7 4 -63 5 -155 3 -200 -5 -190 -11 -215 117 -22 111 -22 117
2 141 18 18 33 20 193 20 153 0 176 -2 189 -17 23 -27 53 -205 39 -232 -7 -11
-9 -21 -5 -21 12 0 148 40 169 50 11 5 79 21 150 35 174 35 205 44 205 58 0 7
-31 170 -69 362 -102 514 -207 1049 -256 1306 -24 125 -50 239 -58 255 -17 33
-51 65 -87 85 -25 13 -159 17 -178 5 -6 -3 28 -191 85 -468 51 -255 92 -471
89 -481 -2 -9 -1 -15 3 -13 7 5 55 -223 48 -230 -2 -2 -9 21 -15 51 -7 30 -17
80 -24 110 -6 31 -14 51 -18 45 -5 -7 -11 -6 -19 3 -6 8 -21 13 -31 10 -13 -3
-20 0 -21 8 0 8 -5 1 -10 -16 -5 -16 -7 -48 -4 -70 2 -22 3 -35 0 -30 -4 9
-103 455 -159 720 -162 758 -167 775 -249 818 -36 19 -53 19 -730 8 -380 -6
-762 -13 -847 -14 -85 -2 -125 -2 -87 0 59 3 66 6 53 18 -16 17 -56 20 -56 6
0 -11 -57 16 -66 31 -5 7 -2 8 7 4 8 -4 5 0 -5 8 -11 9 -24 16 -29 16 -4 0 -5
5 -2 10 4 6 -6 10 -22 10 -22 0 -25 2 -13 10 11 7 6 10 -20 10 -19 0 -52 11
-73 24 l-38 23 413 7 c702 12 1310 26 1319 32 20 12 5 61 -77 249 -10 22 -18
45 -18 52 -1 6 -14 25 -30 43 -22 25 -30 29 -37 19 -5 -8 -3 -17 4 -22 8 -5 5
-7 -8 -5 -16 3 -20 11 -20 41 0 20 -3 37 -7 37 -5 0 -8 -76 -8 -169 l0 -168
-182 -6 c-101 -4 -504 -10 -895 -13 l-713 -7 0 110 c0 61 -3 137 -6 170 l-7
60 -206 -4 c-232 -5 -256 -10 -394 -80 -188 -97 -253 -249 -264 -623 l-6 -185
-37 -42 c-55 -63 -77 -142 -91 -329 -6 -87 -9 -200 -7 -251 2 -52 0 -93 -5
-93 -5 0 -6 -10 -3 -22 9 -33 36 -247 35 -278 -2 -35 -17 43 -19 95 -1 28 -4
34 -9 22 -6 -17 -9 -16 -20 10 -13 25 -15 26 -20 8 -5 -16 -16 -21 -56 -23
-27 -2 -80 -6 -117 -9 -44 -3 -77 -1 -96 8 -27 12 -32 21 -52 108 -44 195
-114 396 -148 423 -13 11 -15 11 -10 -2 29 -81 74 -248 107 -400 23 -102 43
-193 45 -204 4 -15 -1 -13 -24 9 -16 15 -28 33 -27 39 1 6 -4 10 -12 8 -7 -1
-79 60 -160 136 -235 223 -531 481 -531 465 0 -10 261 -277 406 -416 72 -68
107 -108 98 -111 -8 -3 -13 0 -11 7 1 7 -7 11 -22 9 -13 -2 -21 1 -17 6 3 6
-1 12 -9 15 -8 4 -12 1 -9 -7 3 -8 -21 -16 -85 -25 -50 -8 -88 -18 -85 -22 3
-5 1 -9 -5 -9 -5 0 -11 5 -13 10 -2 6 -41 11 -88 11 -98 1 -121 -1 -114 -12 2
-4 0 -10 -4 -13 -5 -3 -17 12 -27 34 -10 22 -20 38 -22 36 -7 -6 63 -139 114
-219 67 -106 150 -211 242 -308 l81 -87 -24 -16 c-37 -24 -51 -78 -49 -191 2
-161 59 -326 170 -494 64 -96 221 -263 330 -351 68 -55 75 -58 105 -49 172 49
643 68 884 36 206 -28 366 -77 404 -122 11 -13 13 -49 11 -153 -3 -149 -6
-157 -64 -186 l-32 -15 -11 47 -12 47 -1 -48 c-1 -29 -6 -49 -13 -51 -7 -2
-38 -11 -68 -19 -79 -23 -298 -55 -420 -62 -136 -7 -461 10 -570 30 -101 19
-237 62 -247 78 -11 17 -53 39 -53 28 0 -17 63 -58 115 -76 76 -25 215 -52
365 -71 104 -12 188 -15 370 -11 129 2 243 8 253 12 15 6 17 1 17 -45 l0 -52
43 7 c23 4 45 9 50 12 4 2 7 26 7 52 0 46 1 49 31 55 60 12 61 10 57 -44 -3
-46 -1 -49 17 -44 64 20 65 21 65 71 0 45 2 49 39 70 l38 22 10 -32 c5 -18 7
-96 5 -174 l-4 -142 -37 -25 c-59 -41 -61 -39 -61 84 0 96 -2 109 -16 103 -9
-3 -12 -9 -7 -12 4 -3 6 -53 3 -110 l-5 -104 -40 -14 c-52 -18 -206 -48 -325
-64 -130 -17 -505 -15 -645 5 -118 16 -262 54 -335 89 -25 11 -49 23 -55 25
-5 3 0 -6 12 -19 102 -111 577 -180 1003 -145 203 17 326 43 434 94 50 24 67
37 72 57 13 52 27 6 28 -90 l1 -95 275 -4 c193 -3 305 -9 375 -20 205 -34 335
-79 369 -128 21 -29 23 -285 4 -310 -14 -17 -78 -58 -91 -58 -5 0 -7 51 -5
114 l3 113 -22 -10 c-22 -10 -23 -15 -21 -121 l1 -111 -46 -17 c-25 -9 -83
-24 -129 -32 -46 -9 -103 -21 -128 -26 -88 -20 -482 -24 -646 -6 -242 26 -455
91 -486 150 -7 12 -9 51 -5 101 l6 81 -144 -1 -143 0 -7 -112 c-4 -62 -10
-113 -13 -113 -4 1 -22 32 -41 71 -19 38 -35 68 -37 67 -1 -2 6 -28 16 -58 29
-82 27 -94 -12 -85 -18 3 -60 10 -93 15 -150 20 -303 62 -345 94 -8 6 -25 17
-38 24 -22 12 -22 12 -12 -7 14 -28 88 -69 163 -93 76 -23 273 -58 332 -58 24
0 47 -4 50 -10 4 -6 69 -10 162 -10 129 0 160 3 174 16 16 14 21 14 61 -9 105
-61 328 -104 598 -116 392 -18 734 32 854 124 41 31 47 33 61 19 8 -9 16 -21
16 -27 5 -43 -5 -285 -11 -297 -11 -20 -85 -62 -94 -53 -4 4 -4 56 0 115 4 59
4 108 2 108 -12 0 -72 -29 -61 -30 18 0 33 -66 33 -142 0 -60 -2 -67 -22 -74
-13 -5 -25 -8 -28 -9 -3 0 -10 -4 -16 -8 -7 -4 -79 -19 -160 -33 -200 -36
-559 -45 -763 -20 -229 29 -375 70 -443 127 l-38 30 0 116 c0 101 -2 114 -16
109 -9 -3 -68 -6 -132 -6 l-117 0 3 -121 3 -122 -123 7 c-140 8 -376 42 -453
65 -51 15 -110 43 -117 55 -4 6 -8 34 -9 61 -1 40 -3 45 -9 25 -4 -14 -8 -18
-9 -10 -1 10 -4 11 -12 3 -13 -13 -3 -36 12 -28 5 4 9 2 9 -3 0 -6 -7 -12 -15
-16 -19 -7 -24 15 -28 119 l-3 80 -2 -97 -2 -98 35 -39 c40 -44 98 -70 225
-100 118 -29 195 -38 425 -52 l200 -12 -3 -113 -3 -114 -47 2 -47 1 43 4 c23
2 42 8 42 13 0 4 -9 6 -20 3 -12 -3 -20 0 -20 6 0 23 -54 7 -67 -18 -6 -14
-10 -29 -7 -33 6 -9 162 -11 227 -2 l46 7 3 84 3 85 28 -22 c15 -12 27 -17 27
-11 0 6 -4 11 -8 11 -20 0 -52 43 -52 70 0 30 13 40 25 20 18 -29 160 -81 289
-105 125 -24 347 -45 486 -45 147 0 404 22 510 45 147 31 270 82 270 112 0 15
2 15 14 3 10 -12 12 -47 8 -167 l-4 -153 -44 -24 -44 -25 -1 112 c-1 62 -1
116 0 120 1 5 -4 6 -11 4 -7 -3 -30 -11 -50 -18 -38 -12 -38 -12 -38 -68 0
-37 3 -51 9 -42 7 11 13 5 26 -25 30 -70 26 -86 -27 -105 -84 -32 -350 -69
-563 -78 l-200 -8 200 -1 c295 -3 513 28 649 92 104 48 105 50 108 193 l3 122
225 4 c129 3 276 12 344 21 65 10 121 14 125 11 3 -4 22 -61 42 -128 l36 -122
51 0 c47 0 52 -3 74 -35 13 -19 43 -45 68 -57 43 -23 51 -23 395 -23 718 -1
2811 22 2846 31 50 12 88 45 110 93 16 34 19 67 19 198 l0 158 685 0 684 0 68
-44 c38 -24 97 -58 133 -76 36 -18 66 -34 68 -35 2 -2 -8 -15 -21 -29 -26 -28
-47 -93 -47 -146 0 -110 124 -198 323 -230 84 -14 272 -9 382 10 144 25 647
80 728 80 30 0 46 4 42 10 -3 5 -14 10 -23 10 -16 0 -196 55 -212 65 -18 11
71 395 92 395 5 0 58 -25 118 -55 60 -30 155 -71 212 -91 88 -31 121 -37 221
-43 108 -5 120 -8 138 -29 26 -33 39 -86 39 -167 0 -99 -20 -129 -91 -140
l-54 -8 90 -19 c121 -25 335 -34 417 -19 151 29 252 78 297 146 20 30 25 49
24 99 l0 62 106 49 c58 28 139 74 181 104 65 47 81 54 120 53 28 0 37 2 25 6
-19 7 -26 24 -14 36 3 3 39 10 80 16 100 14 181 41 322 107 166 78 252 92 425
69 l127 -16 33 35 c40 44 43 85 6 114 -60 48 -241 91 -379 91 -116 0 -294 -55
-404 -125 -24 -14 -44 -25 -46 -23 -2 2 -1 38 2 80 l6 77 57 35 c76 47 218
157 303 236 278 256 507 676 507 930 0 111 -37 146 -205 192 -118 32 -399 31
-570 -1 -66 -13 -136 -24 -155 -27 -19 -2 -68 -15 -109 -29 -73 -25 -113 -29
-49 -6 18 7 41 17 50 22 10 5 24 9 32 9 7 0 19 7 27 16 8 10 21 13 37 9 19 -5
32 1 58 26 18 18 30 37 27 42 -3 6 -2 7 4 4 5 -3 27 13 49 35 21 23 31 36 22
29 -10 -7 -18 -10 -18 -6 0 5 -9 0 -20 -10 -11 -10 -17 -23 -13 -29 4 -6 -1
-5 -10 3 -9 7 -17 20 -17 27 0 8 -9 14 -20 14 -11 0 -20 -5 -20 -11 0 -5 -4
-8 -9 -5 -5 4 -7 -3 -4 -14 7 -24 -19 -27 -59 -6 -16 8 -28 12 -28 8 0 -4 -9
-8 -20 -9 -11 -1 -20 2 -20 7 0 10 -35 8 -107 -5 -24 -4 -40 -11 -38 -16 11
-16 -37 -31 -74 -23 -41 8 -65 6 -69 -7 -2 -5 -8 -9 -13 -9 -6 0 -7 5 -4 10 4
6 -10 10 -35 10 -23 0 -50 4 -60 10 -13 7 -29 5 -54 -5 -49 -21 -52 -5 -8 38
l37 37 145 -11 c207 -15 379 3 488 51 59 26 45 42 -27 29 -29 -6 -56 -8 -59
-5 -3 3 4 6 16 6 15 0 20 5 16 15 -8 20 -64 20 -64 1 0 -8 -3 -16 -7 -19 -5
-2 -3 -2 4 -1 7 2 15 -1 18 -6 3 -4 -25 -12 -62 -16 -81 -10 -361 -9 -392 1
-19 6 -7 22 111 146 73 77 142 142 153 144 184 35 351 74 435 101 108 35 210
86 210 105 0 7 -7 8 -17 4 -138 -58 -331 -110 -558 -150 l-39 -7 74 79 c199
208 517 589 554 663 10 20 -110 -106 -324 -340 -285 -313 -291 -319 -286 -290
3 14 8 63 11 110 10 140 33 279 66 393 33 119 33 158 -1 84 -54 -119 -81 -241
-109 -489 -15 -132 -23 -172 -38 -192 -11 -14 -79 -86 -151 -161 l-131 -136 3
328 c2 258 7 347 20 417 19 100 16 121 -8 49 -44 -133 -66 -361 -66 -671 l0
-177 -102 -100 c-56 -55 -96 -92 -89 -82 12 15 9 21 -12 18 -4 0 -6 2 -5 6 3
15 -20 59 -47 92 -26 30 -27 36 -23 109 3 42 2 68 -3 57 -5 -13 -8 -15 -8 -5
0 8 3 22 9 30 6 9 5 17 -1 21 -18 11 -16 92 3 146 22 64 23 123 2 193 -20 68
-43 103 -148 225 -108 126 -144 194 -195 370 -75 257 -136 345 -298 427 -48
25 -111 57 -139 72 -28 15 -75 33 -105 41 -70 19 -207 19 -288 0 -89 -21 -211
-88 -274 -149 -126 -124 -172 -245 -196 -507 -15 -156 -29 -199 -111 -319 -80
-120 -104 -181 -104 -265 0 -65 31 -148 73 -195 l22 -25 -8 35 c-15 66 -8 172
15 220 21 43 22 43 14 10 -4 -19 -7 -71 -7 -115 0 -70 4 -89 32 -145 18 -36
45 -80 61 -99 l28 -34 59 22 c68 26 223 51 312 51 106 0 112 5 128 115 6 40 6
40 -42 59 -66 28 -171 135 -212 217 -31 64 -62 187 -76 307 -7 62 -7 62 18 62
14 0 34 3 44 7 16 6 17 5 3 -12 -14 -17 -13 -18 19 -12 18 4 54 7 78 7 39 0
44 2 33 15 -7 8 -22 15 -34 16 -19 0 -19 1 4 11 187 80 279 138 376 240 l62
64 5 -46 c9 -78 46 -160 92 -204 23 -23 52 -63 63 -90 l22 -48 35 31 c72 63
135 27 135 -78 -1 -101 -64 -191 -135 -191 -30 0 -36 -6 -65 -57 -33 -58 -33
-58 -27 -163 8 -132 21 -176 62 -217 32 -32 35 -33 117 -33 82 0 248 -22 300
-40 23 -7 33 -5 58 17 17 14 42 45 56 70 15 24 29 42 31 39 3 -2 -10 -26 -28
-53 -50 -71 -48 -83 13 -113 89 -43 143 -125 258 -395 18 -43 49 -131 55 -155
2 -8 18 -62 36 -119 23 -76 29 -105 20 -111 -22 -13 -242 -39 -387 -46 l-142
-7 7 -26 c6 -21 16 -27 52 -34 75 -14 247 -2 311 21 l57 20 6 -31 c23 -136 32
-430 15 -502 -5 -22 -8 -41 -6 -42 2 -2 43 6 92 18 110 27 281 32 308 9 17
-13 17 -15 -3 -31 -11 -9 -74 -33 -138 -54 -488 -152 -892 -305 -1285 -488
-43 -20 -78 -35 -78 -33 0 10 455 267 690 389 l155 82 -40 7 c-52 9 -82 -1
-230 -78 -199 -104 -312 -134 -503 -135 -186 0 -335 38 -527 136 -61 31 -169
78 -242 105 -125 46 -135 48 -205 43 -127 -10 -272 34 -308 92 -23 37 -27 114
-9 197 12 54 2 1205 -22 2636 -11 630 -11 634 9 655 40 42 42 67 42 456 0 368
-1 379 -21 405 -11 14 -26 26 -33 26 -16 0 -26 220 -27 614 -1 382 -9 497 -41
567 -32 70 -105 150 -172 188 -112 64 -17 61 -1706 60 -1171 0 -1547 -4 -1585
-13z m-3961 -1521 c-3 -8 -14 -17 -25 -20 -13 -4 -19 -16 -20 -38 -1 -26 -3
-22 -14 23 -17 67 -18 73 -5 65 6 -3 10 -1 10 5 0 6 4 9 8 6 4 -2 14 -1 22 4
17 11 33 -20 24 -45z m469 -302 c-7 -2 -21 -2 -30 0 -10 3 -4 5 12 5 17 0 24
-2 18 -5z m1690 -263 c30 -33 36 -53 95 -325 148 -692 172 -807 172 -825 0
-30 -48 -79 -83 -85 -18 -3 -255 -10 -527 -15 -272 -5 -721 -15 -997 -21 -559
-13 -537 -15 -568 54 -8 18 -62 248 -119 512 -58 264 -113 513 -122 553 -15
67 -15 74 0 97 36 54 18 52 651 65 325 7 745 15 935 20 190 4 387 7 438 6 93
-1 94 -1 125 -36z m-3790 -917 c-7 -2 -19 -2 -25 0 -7 3 -2 5 12 5 14 0 19 -2
13 -5z m764 -195 c-3 -7 -5 -2 -5 12 0 14 2 19 5 13 2 -7 2 -19 0 -25z m3610
-290 c-3 -8 -6 -5 -6 6 -1 11 2 17 5 13 3 -3 4 -12 1 -19z m120 -10 c-3 -8 -6
-5 -6 6 -1 11 2 17 5 13 3 -3 4 -12 1 -19z m-253 -98 c36 -13 52 -52 66 -161
14 -109 5 -159 -33 -183 -16 -10 -76 -15 -202 -19 -248 -7 -255 -3 -281 156
-13 83 -13 96 1 134 9 23 23 47 32 55 25 21 370 36 417 18z m-568 -31 c22 -18
30 -44 37 -114 l6 -60 -13 55 c-8 30 -14 47 -15 36 -1 -15 -4 -16 -15 -7 -39
32 -133 71 -175 72 -46 2 -46 2 -11 9 29 6 24 7 -30 8 -45 0 -59 -2 -45 -8 18
-8 17 -9 -6 -9 -15 -1 -38 -10 -52 -21 -14 -11 -30 -20 -35 -20 -5 0 -15 -6
-21 -14 -6 -8 -20 -16 -31 -19 -15 -4 -22 3 -31 30 -20 61 -4 67 184 74 192 7
233 5 253 -12z m-1211 -15 c40 -19 49 -40 66 -161 14 -104 7 -147 -31 -174
-21 -15 -55 -19 -222 -25 -271 -9 -277 -6 -299 163 -14 101 -9 130 25 170 l24
28 179 5 c98 3 189 7 201 8 13 1 39 -5 57 -14z m634 -3 c12 -12 23 -46 31 -92
6 -41 14 -81 16 -90 10 -35 -17 -39 -241 -37 l-217 3 -25 45 c-14 25 -29 47
-34 48 -27 10 3 110 38 131 11 6 100 11 216 11 180 0 199 -2 216 -19z m1328
-73 c-3 -8 -6 -5 -6 6 -1 11 2 17 5 13 3 -3 4 -12 1 -19z m10 -50 c-3 -7 -5
-2 -5 12 0 14 2 19 5 13 2 -7 2 -19 0 -25z m-639 -416 c21 -21 57 -200 47
-231 -8 -27 -18 -29 -215 -35 -128 -5 -170 -3 -184 7 -10 8 -25 45 -36 92 -23
94 -25 148 -7 163 13 11 84 16 280 20 81 2 100 -1 115 -16z m-572 -14 c17 -17
57 -203 49 -229 -4 -11 -17 -24 -29 -28 -28 -11 -354 -17 -383 -8 -26 9 -30
19 -54 126 -23 102 -23 102 -5 126 12 17 32 20 173 26 185 8 231 5 249 -13z
m-613 -20 c18 -17 31 -48 47 -116 36 -148 32 -150 -262 -153 -202 -3 -198 -5
-222 114 -10 45 -20 89 -22 98 -2 9 4 27 15 40 18 23 27 24 153 30 271 11 264
11 291 -13z m9581 -367 c4 -5 -3 -7 -14 -4 -12 3 -20 0 -20 -8 0 -7 -3 -10 -6
-6 -9 9 5 27 21 27 8 0 16 -4 19 -9z m-9474 -29 c14 -12 28 -43 40 -97 24 -98
25 -139 5 -155 -11 -9 -80 -16 -217 -22 -172 -7 -205 -6 -224 7 -24 15 -33 41
-58 158 -13 63 -12 69 4 90 17 20 29 22 172 28 84 3 176 6 204 7 37 1 58 -3
74 -16z m9010 -217 c-35 -19 -68 -34 -72 -33 -10 4 112 68 127 68 6 0 -19 -16
-55 -35z m-8911 -182 c15 -12 28 -45 41 -101 25 -105 25 -138 2 -151 -10 -5
-108 -13 -218 -17 l-200 -7 -20 25 c-10 13 -30 68 -43 121 -37 145 -54 138
310 145 89 2 110 -1 128 -15z m138 -385 c29 -32 72 -202 57 -226 -14 -22 -86
-29 -296 -31 -177 -1 -180 0 -198 72 -6 23 -18 67 -27 98 -24 89 -15 98 105
102 307 10 337 9 359 -15z m472 -308 c0 -9 -4 -8 -9 5 -5 11 -9 27 -9 35 0 9
4 8 9 -5 5 -11 9 -27 9 -35z m5228 -46 c-3 -3 -12 -4 -19 -1 -8 3 -5 6 6 6 11
1 17 -2 13 -5z m-95 -35 c-69 -34 -103 -69 -95 -99 4 -14 0 -20 -10 -20 -9 0
-19 -15 -25 -37 -5 -21 -10 -29 -11 -18 -1 27 41 116 65 137 27 24 107 68 123
68 8 0 -13 -14 -47 -31z m401 1 c183 -40 333 -112 732 -352 132 -79 295 -175
363 -212 219 -122 152 -106 -113 26 -500 251 -846 391 -1168 473 -70 17 -129
36 -130 41 -4 16 96 43 161 44 34 0 104 -9 155 -20z m-4716 -156 c-3 -3 -12
-4 -19 -1 -8 3 -5 6 6 6 11 1 17 -2 13 -5z m1538 -96 c4 -29 5 -71 3 -93 -2
-33 -7 -41 -25 -43 -21 -3 -23 1 -23 41 0 64 -10 107 -26 107 -8 0 -14 9 -14
20 0 17 7 20 39 20 l40 0 6 -52z m157 35 c27 -25 22 -53 -19 -95 -31 -31 -34
-38 -18 -37 49 5 63 -1 58 -21 -5 -18 -14 -20 -74 -20 -86 0 -89 14 -23 81 54
55 52 74 -7 64 -31 -5 -39 -4 -39 9 0 35 88 50 122 19z m162 1 c19 -18 19 -20
5 -45 -8 -16 -7 -25 5 -38 22 -24 20 -38 -9 -66 -37 -38 -125 -29 -125 12 0
13 7 14 39 9 26 -4 42 -2 50 7 14 17 4 27 -26 27 -20 0 -24 5 -21 23 2 14 11
23 26 25 36 5 19 27 -20 27 -42 0 -59 12 -38 25 24 16 97 12 114 -6z m176 -34
c0 -36 4 -52 15 -56 20 -8 19 -44 0 -44 -10 0 -15 -7 -13 -17 2 -12 -4 -19
-19 -21 -17 -3 -23 2 -23 17 0 17 -8 20 -47 23 -64 4 -65 21 -7 91 33 40 53
57 70 57 22 0 24 -4 24 -50z m-2026 34 c9 -3 16 -11 16 -16 0 -6 7 -16 17 -23
18 -13 10 -35 -14 -35 -13 0 -13 -3 -3 -15 15 -18 6 -45 -14 -45 -8 0 -19 8
-25 18 -9 16 -11 16 -24 -2 -9 -12 -20 -17 -31 -13 -18 7 -22 32 -6 42 6 4 5
13 -2 24 -9 15 -8 24 5 45 17 26 47 33 81 20z m166 -13 c17 -33 48 -36 71 -7
23 30 76 36 85 11 4 -9 15 -20 26 -26 17 -9 25 -7 45 15 31 34 72 34 101 1 26
-30 27 -41 6 -49 -13 -5 -14 -9 -4 -21 10 -12 10 -18 0 -30 -16 -20 -30 -19
-46 3 -12 16 -13 16 -19 0 -8 -20 -22 -22 -44 -9 -10 6 -11 13 -2 29 14 26 1
35 -34 26 -20 -5 -23 -9 -14 -20 6 -8 9 -21 5 -29 -8 -21 -42 -19 -51 3 -6 16
-7 16 -16 0 -12 -22 -32 -23 -48 -4 -9 11 -8 17 4 29 20 21 4 30 -36 22 -24
-6 -28 -9 -18 -21 14 -17 5 -44 -14 -44 -8 0 -20 7 -28 16 -11 14 -13 14 -21
0 -11 -20 -32 -20 -47 -2 -9 11 -8 18 4 30 15 15 15 17 1 22 -21 8 -20 16 5
48 25 32 73 36 89 7z m612 -1 c15 -23 68 -28 68 -6 0 31 74 36 92 6 7 -11 23
-20 35 -20 12 0 27 9 33 20 8 15 21 20 50 20 30 0 40 -5 45 -20 4 -12 15 -20
28 -20 12 0 28 9 35 20 9 14 23 20 51 20 34 0 42 -4 55 -32 12 -23 13 -34 5
-39 -6 -3 -8 -15 -5 -26 4 -12 0 -25 -9 -33 -13 -11 -19 -10 -34 4 -18 17 -20
16 -29 0 -6 -11 -16 -15 -27 -10 -13 5 -16 13 -11 36 5 26 3 30 -17 30 -23 0
-62 -20 -39 -20 17 0 15 -39 -3 -47 -9 -3 -24 2 -34 11 -16 15 -19 15 -24 1
-8 -19 -36 -20 -43 0 -4 8 0 22 7 31 18 22 -6 35 -43 22 -23 -8 -26 -13 -17
-24 14 -17 5 -44 -15 -44 -8 0 -20 8 -26 18 -10 16 -10 16 -20 0 -13 -21 -31
-23 -48 -6 -9 9 -8 16 4 30 15 16 15 18 0 24 -9 3 -28 3 -42 0 -21 -6 -24 -9
-14 -21 7 -8 10 -22 6 -30 -7 -20 -35 -19 -43 0 -5 14 -8 14 -24 -1 -10 -9
-25 -14 -34 -11 -17 7 -21 47 -3 47 7 0 6 6 -4 18 -28 31 -1 72 48 72 23 0 38
-6 46 -20z m368 -84 c0 -3 -4 -8 -10 -11 -5 -3 -10 -1 -10 4 0 6 5 11 10 11 6
0 10 -2 10 -4z m7103 -16 c-3 -11 -10 -23 -16 -27 -5 -3 -8 -2 -5 3 3 5 8 17
11 27 9 24 16 22 10 -3z m-7398 -110 c-16 -4 -46 -8 -65 -8 l-35 0 30 8 c17 4
46 8 65 8 l35 0 -30 -8z m7435 -20 c-18 -12 -43 -13 -36 -2 2 4 15 8 28 9 18
2 19 0 8 -7z m-5547 -104 c18 -7 43 -26 57 -41 22 -23 25 -37 28 -108 3 -94
-7 -120 -58 -155 -32 -22 -43 -23 -141 -20 -99 3 -108 5 -144 32 -33 26 -39
27 -47 12 -18 -31 -63 -45 -159 -47 -151 -4 -192 29 -203 160 -12 139 24 171
192 171 90 0 103 -2 136 -25 l37 -25 29 20 c15 11 38 24 51 29 37 15 185 13
222 -3z m-2168 -221 l0 -50 -360 0 -360 0 -3 39 c-6 71 -31 67 365 64 l358 -3
0 -50z m523 3 l-3 -53 -181 -3 -182 -2 -4 45 c-2 24 -2 49 0 55 2 6 72 10 188
10 l185 0 -3 -52z m4253 -224 c70 -24 313 -82 379 -90 33 -4 62 -10 65 -14 14
-23 -344 -80 -418 -66 -52 10 -77 51 -77 129 0 31 2 57 4 57 2 0 23 -7 47 -16z"/>
<path d="M4483 6133 c-19 -4 -79 -69 -172 -188 -15 -19 -15 -19 3 -5 17 13 18
13 14 -5 -2 -11 -11 -20 -22 -20 -20 0 -68 -54 -60 -67 3 -5 1 -7 -4 -6 -5 2
-46 -43 -91 -99 -44 -57 -85 -103 -90 -103 -4 0 -19 8 -32 18 -79 61 -195 132
-215 132 -61 0 -118 -62 -112 -122 3 -35 15 -45 248 -215 87 -64 120 -83 146
-83 50 0 60 7 116 83 29 40 120 160 202 267 82 107 154 202 160 210 9 13 9 13
-6 2 -18 -14 -25 -8 -24 23 1 24 -17 45 -38 45 -13 0 -26 23 -32 58 -1 7 9 12
28 12 23 0 29 4 26 18 -6 32 -52 23 -79 -17 -38 -56 -109 -113 -77 -62 7 11
16 17 20 15 5 -3 7 0 6 8 -2 7 3 12 10 10 8 -1 11 1 8 6 -9 15 48 71 74 73 50
4 69 -1 102 -28 28 -24 30 -24 13 -4 -19 22 -75 53 -92 50 -4 -1 -18 -4 -30
-6z m-130 -163 c-3 -11 -9 -20 -15 -20 -5 0 -4 9 2 20 6 11 12 20 14 20 2 0 2
-9 -1 -20z m-53 -64 c0 -2 -8 -10 -17 -17 -16 -13 -17 -12 -4 4 13 16 21 21
21 13z"/>
<path d="M7537 2370 c-16 -22 -16 -25 -1 -28 21 -5 26 2 22 30 l-3 23 -18 -25z"/>
<path d="M5535 2400 c-3 -5 -1 -10 4 -10 6 0 11 5 11 10 0 6 -2 10 -4 10 -3 0
-8 -4 -11 -10z"/>
<path d="M5690 2400 c0 -5 5 -10 11 -10 5 0 7 5 4 10 -3 6 -8 10 -11 10 -2 0
-4 -4 -4 -10z"/>
<path d="M6010 2400 c0 -5 5 -10 11 -10 5 0 7 5 4 10 -3 6 -8 10 -11 10 -2 0
-4 -4 -4 -10z"/>
<path d="M6780 2411 c0 -6 5 -13 10 -16 6 -3 10 1 10 9 0 9 -4 16 -10 16 -5 0
-10 -4 -10 -9z"/>
<path d="M6300 2400 c0 -5 5 -10 11 -10 5 0 7 5 4 10 -3 6 -8 10 -11 10 -2 0
-4 -4 -4 -10z"/>
<path d="M6460 2400 c0 -5 5 -10 10 -10 6 0 10 5 10 10 0 6 -4 10 -10 10 -5 0
-10 -4 -10 -10z"/>
<path d="M6620 2400 c0 -5 5 -10 10 -10 6 0 10 5 10 10 0 6 -4 10 -10 10 -5 0
-10 -4 -10 -10z"/>
<path d="M12168 7463 c7 -3 16 -2 19 1 4 3 -2 6 -13 5 -11 0 -14 -3 -6 -6z"/>
<path d="M8500 7453 c67 -5 92 -23 35 -24 -28 0 -34 -3 -22 -8 16 -6 17 -9 5
-18 -7 -6 -25 -14 -40 -18 -15 -4 -26 -10 -25 -15 1 -4 -7 -16 -18 -26 -12
-11 -14 -14 -6 -9 10 7 8 1 -4 -17 -11 -15 -26 -25 -33 -23 -7 3 -10 0 -7 -5
7 -11 -62 -80 -80 -80 -3 0 -3 6 1 13 4 6 -3 2 -15 -10 -12 -13 -29 -23 -37
-23 -9 0 -12 -5 -8 -12 5 -8 0 -9 -14 -6 -14 4 -20 2 -15 -5 4 -7 0 -8 -11 -4
-10 4 -15 3 -11 -3 3 -6 -1 -10 -9 -10 -9 0 -16 -4 -16 -9 0 -7 -18 -16 -50
-25 -3 0 -18 -11 -35 -22 -16 -12 -50 -32 -75 -45 -63 -34 -83 -50 -99 -81 -8
-16 -18 -28 -23 -28 -4 0 -8 -7 -8 -15 0 -9 -7 -18 -15 -21 -8 -4 -12 -10 -9
-15 3 -6 -1 -21 -10 -34 -9 -13 -16 -33 -16 -43 0 -10 -6 -27 -14 -37 -8 -11
-12 -29 -10 -41 3 -16 -2 -25 -16 -29 -13 -4 -23 -19 -27 -37 l-6 -30 -13 28
c-12 26 -13 23 -8 -36 24 -275 189 -516 436 -639 162 -80 322 -110 485 -91
290 34 533 200 652 445 209 429 -11 923 -479 1077 -86 28 -108 31 -240 33 -80
2 -120 1 -90 -2z m506 -319 c51 -25 94 -81 94 -125 0 -32 -30 -73 -279 -386
-153 -193 -289 -358 -302 -367 -31 -21 -77 -20 -114 3 -16 10 -66 49 -110 87
-44 38 -117 100 -162 137 -113 94 -120 137 -35 226 33 35 45 41 79 41 44 0 59
-10 187 -118 l75 -62 157 197 c292 367 305 381 357 382 11 1 34 -6 53 -15z
m-905 -87 c-10 -9 -11 -8 -5 6 3 10 9 15 12 12 3 -3 0 -11 -7 -18z"/>
<path d="M8393 7443 c9 -2 25 -2 35 0 9 3 1 5 -18 5 -19 0 -27 -2 -17 -5z"/>
<path d="M8348 7433 c7 -3 16 -2 19 1 4 3 -2 6 -13 5 -11 0 -14 -3 -6 -6z"/>
<path d="M8124 7344 c-18 -14 -18 -15 4 -4 12 6 22 13 22 15 0 8 -5 6 -26 -11z"/>
<path d="M8024 7274 l-39 -35 43 32 c38 30 48 39 39 39 -2 0 -21 -16 -43 -36z"/>
<path d="M4932 7216 c21 -8 50 -21 64 -31 15 -9 23 -12 20 -6 -10 16 -82 51
-103 51 -10 -1 -1 -7 19 -14z"/>
<path d="M5075 7085 c16 -35 31 -63 33 -61 5 5 -44 113 -54 119 -5 3 4 -23 21
-58z"/>
<path d="M5140 6946 c0 -11 30 -66 36 -66 2 0 -3 15 -12 33 -19 36 -24 44 -24
33z"/>
<path d="M7742 6765 c0 -16 2 -22 5 -12 2 9 2 23 0 30 -3 6 -5 -1 -5 -18z"/>
<path d="M5472 6610 c0 -14 2 -19 5 -12 2 6 2 18 0 25 -3 6 -5 1 -5 -13z"/>
<path d="M5482 6560 c0 -14 4 -36 8 -50 6 -20 8 -21 8 -5 0 11 -4 34 -8 50 -7
27 -8 27 -8 5z"/>
<path d="M5502 6460 c0 -14 2 -19 5 -12 2 6 2 18 0 25 -3 6 -5 1 -5 -13z"/>
<path d="M1158 6093 c6 -2 18 -2 25 0 6 3 1 5 -13 5 -14 0 -19 -2 -12 -5z"/>
<path d="M1238 6083 c7 -3 16 -2 19 1 4 3 -2 6 -13 5 -11 0 -14 -3 -6 -6z"/>
<path d="M1630 5956 c0 -3 14 -12 30 -21 17 -9 30 -13 30 -11 0 3 -13 12 -30
21 -16 9 -30 13 -30 11z"/>
<path d="M822 5855 c0 -16 2 -22 5 -12 2 9 2 23 0 30 -3 6 -5 -1 -5 -18z"/>
<path d="M832 5790 c0 -14 2 -19 5 -12 2 6 2 18 0 25 -3 6 -5 1 -5 -13z"/>
<path d="M841 5744 c0 -11 3 -14 6 -6 3 7 2 16 -1 19 -3 4 -6 -2 -5 -13z"/>
<path d="M866 5660 c4 -14 13 -38 20 -55 11 -24 13 -25 8 -5 -4 14 -13 39 -20
55 -11 24 -13 25 -8 5z"/>
<path d="M8200 5651 c-76 -16 -137 -67 -168 -141 -21 -51 -12 -192 16 -247 55
-105 190 -140 320 -83 l42 19 0 115 0 116 -90 0 -90 0 0 -40 0 -40 41 0 40 0
-3 -47 -3 -48 -47 -3 c-78 -5 -108 25 -122 119 -10 67 7 129 44 162 25 22 40
27 83 27 28 0 59 -5 67 -10 11 -7 22 -2 42 17 16 15 28 30 28 35 0 14 -75 46
-120 51 -25 3 -61 2 -80 -2z"/>
<path d="M7230 5405 l0 -245 55 0 54 0 3 83 3 82 65 6 c80 8 107 18 145 58 25
27 30 41 33 94 7 125 -52 166 -240 167 l-118 0 0 -245z m221 145 c23 -13 35
-71 19 -99 -13 -26 -49 -41 -96 -41 l-34 0 0 73 c0 41 3 77 8 81 8 9 77 -1
103 -14z"/>
<path d="M7725 5638 c-19 -51 -155 -462 -155 -469 0 -5 24 -9 54 -9 l53 0 14
53 14 52 75 0 75 0 16 -50 16 -50 61 -3 61 -3 -82 243 -82 243 -58 3 c-40 2
-59 -1 -62 -10z m84 -185 c11 -45 21 -87 21 -93 0 -5 -23 -10 -51 -10 -40 0
-50 3 -46 14 5 14 10 31 38 140 6 21 12 36 14 35 1 -2 12 -41 24 -86z"/>
<path d="M9507 5635 c-48 -17 -82 -48 -110 -100 -33 -60 -32 -211 2 -278 78
-159 324 -145 388 21 21 56 24 169 4 225 -40 115 -167 174 -284 132z m130 -95
c36 -22 53 -67 53 -145 0 -106 -31 -155 -98 -155 -73 0 -102 46 -102 162 0 55
5 81 20 106 32 52 76 64 127 32z"/>
<path d="M8597 5633 c-3 -6 -128 -383 -153 -461 -3 -10 10 -12 53 -10 l56 3
14 48 14 47 74 0 74 0 14 -47 14 -48 61 -3 60 -3 -17 53 c-9 29 -45 137 -80
241 l-63 187 -58 0 c-32 0 -61 -3 -63 -7z m83 -171 c9 -37 20 -77 24 -89 7
-22 5 -23 -44 -23 -49 0 -52 1 -46 23 3 12 13 55 23 94 9 40 19 70 22 67 3 -3
13 -35 21 -72z"/>
<path d="M8920 5400 l0 -240 115 0 c82 0 127 5 153 15 85 36 121 101 122 216
0 123 -30 182 -114 224 -44 22 -63 25 -163 25 l-113 0 0 -240z m219 135 c45
-23 68 -106 52 -189 -12 -68 -44 -97 -107 -99 l-49 -2 -3 153 -3 152 41 0 c23
0 54 -7 69 -15z"/>
<path d="M900 5565 c0 -5 5 -17 10 -25 5 -8 10 -10 10 -5 0 6 -5 17 -10 25 -5
8 -10 11 -10 5z"/>
<path d="M1343 5540 c-7 -10 -9 -22 -4 -24 5 -3 12 1 15 10 5 14 9 14 24 3 14
-11 13 -9 -2 9 -11 12 -20 22 -20 22 -1 0 -7 -9 -13 -20z"/>
<path d="M5680 5240 c0 -5 5 -10 11 -10 5 0 7 5 4 10 -3 6 -8 10 -11 10 -2 0
-4 -4 -4 -10z"/>
<path d="M11648 4879 c-31 -18 -19 -29 25 -23 23 3 59 2 80 -4 48 -13 50 4 2
24 -40 16 -83 18 -107 3z"/>
<path d="M7605 4856 c-78 -19 -172 -77 -159 -98 4 -7 2 -8 -4 -4 -18 11 -80
-92 -93 -153 -16 -76 -7 -204 20 -274 28 -72 97 -144 175 -182 56 -28 68 -29
240 -36 100 -4 537 -9 971 -10 l790 -4 59 29 c73 36 133 94 166 161 21 44 24
64 25 165 0 108 -2 119 -31 181 -41 87 -89 138 -166 179 -61 33 -66 34 -228
41 -91 4 -514 10 -940 12 -594 4 -787 2 -825 -7z m400 -196 c53 -12 85 -50 85
-100 0 -78 -35 -114 -124 -126 l-45 -7 -3 -51 -3 -51 -35 3 c-19 2 -36 5 -38
6 -7 7 -14 257 -8 289 6 31 11 36 39 40 59 7 92 7 132 -3z m610 -4 c39 -17 39
-16 24 -49 -11 -23 -15 -25 -69 -20 -52 5 -59 3 -74 -18 -10 -15 -16 -44 -16
-81 0 -66 24 -98 72 -98 24 0 28 4 28 30 0 23 -4 30 -20 30 -16 0 -20 7 -20
30 l0 30 60 0 60 0 0 -84 0 -84 -31 -11 c-18 -6 -58 -11 -90 -11 -51 0 -63 4
-93 30 -44 39 -59 85 -54 163 5 89 41 132 123 150 39 9 66 7 100 -7z m-288
-161 c29 -88 53 -164 53 -168 0 -5 -19 -7 -42 -5 -38 3 -43 6 -52 36 -9 31
-11 32 -61 32 -50 0 -52 -1 -61 -32 -8 -29 -14 -33 -47 -36 -29 -3 -37 0 -37
13 0 9 23 86 51 171 l50 155 46 -3 46 -3 54 -160z m597 4 c31 -88 56 -165 56
-170 0 -5 -20 -9 -44 -9 -40 0 -44 2 -52 33 -9 30 -13 32 -60 35 -48 3 -50 2
-59 -30 -9 -30 -14 -33 -47 -33 -21 0 -38 5 -39 10 0 6 23 81 52 168 l53 157
42 0 42 0 56 -161z m271 147 c41 -17 55 -42 55 -96 0 -33 -6 -48 -29 -71 -16
-16 -25 -31 -20 -35 7 -4 50 -78 67 -116 2 -5 -17 -8 -42 -8 -45 0 -45 0 -77
60 -17 33 -38 60 -45 60 -10 0 -14 -16 -14 -60 l0 -60 -45 0 -45 0 0 170 0
170 80 0 c47 0 95 -6 115 -14z"/>
<path d="M7920 4546 c0 -44 1 -46 29 -46 36 0 53 20 49 57 -3 24 -8 28 -40 31
l-38 3 0 -45z"/>
<path d="M8221 4534 c0 -11 3 -14 6 -6 3 7 2 16 -1 19 -3 4 -6 -2 -5 -13z"/>
<path d="M8211 4503 c0 -6 -4 -18 -7 -27 -5 -12 0 -16 22 -15 16 1 21 3 12 6
-9 2 -19 14 -21 26 -2 12 -5 17 -6 10z"/>
<path d="M8816 4526 c-4 -20 -10 -44 -13 -52 -4 -10 2 -14 21 -14 30 0 30 0
12 60 l-13 44 -7 -38z"/>
<path d="M9091 4549 c-1 -45 0 -46 27 -41 32 6 52 20 52 38 0 16 -27 44 -43
44 -7 0 -6 -4 3 -10 13 -8 12 -10 -3 -10 -10 0 -16 -4 -12 -9 3 -5 1 -12 -4
-15 -5 -4 -12 6 -14 21 -3 18 -5 12 -6 -18z"/>
<path d="M11664 4756 c-25 -21 -26 -25 -14 -39 8 -9 21 -23 28 -32 20 -23 41
-18 60 15 13 24 22 29 40 25 37 -9 25 4 -25 27 -27 12 -51 23 -55 25 -4 2 -19
-7 -34 -21z"/>
<path d="M11268 4748 c-20 -20 -21 -23 -5 -26 9 -2 17 -12 17 -22 0 -27 34
-44 60 -30 11 6 20 17 20 26 0 8 7 17 15 20 11 5 5 12 -21 30 -43 30 -58 30
-86 2z"/>
<path d="M12883 4141 c-9 -14 -9 -22 -2 -27 15 -9 21 1 17 26 -3 21 -3 21 -15
1z"/>
<path d="M13639 3963 l-24 -28 28 24 c15 14 27 26 27 28 0 8 -8 1 -31 -24z"/>
<path d="M2278 3783 c12 -2 32 -2 45 0 12 2 2 4 -23 4 -25 0 -35 -2 -22 -4z"/>
<path d="M6027 3759 c-129 -25 -242 -112 -302 -232 -19 -38 -33 -72 -31 -76 2
-3 56 -5 120 -3 102 3 116 5 116 21 0 9 13 37 28 62 16 24 31 52 35 62 13 36
49 41 116 16 74 -26 111 -53 111 -79 0 -27 -41 -51 -95 -58 -25 -2 -45 -9 -45
-13 0 -11 368 -11 422 -1 l37 7 -22 44 c-12 25 -48 73 -81 108 -68 74 -167
128 -261 143 -69 11 -82 11 -148 -1z"/>
<path d="M11061 3663 c-12 -14 -19 -33 -17 -42 11 -34 65 -237 70 -262 l6 -26
79 38 c102 49 129 56 137 36 9 -24 -20 -69 -66 -102 -23 -16 -51 -38 -63 -48
l-22 -18 25 7 c39 11 144 22 158 16 21 -8 9 -52 -18 -68 -14 -7 -51 -23 -83
-35 -32 -11 -56 -23 -54 -26 3 -2 29 0 58 5 29 6 59 8 66 5 38 -15 -12 -79
-82 -104 -19 -7 -34 -18 -32 -24 4 -11 124 -22 258 -24 71 -1 89 2 102 17 24
27 21 32 -17 32 -54 0 -66 8 -66 46 0 29 6 38 35 56 45 26 39 34 -10 14 -54
-23 -65 -21 -65 15 0 44 15 66 68 100 l47 30 -35 -5 c-19 -3 -52 -9 -72 -12
-45 -8 -57 10 -38 55 11 27 61 61 89 61 14 0 14 0 -9 110 -29 135 -37 156 -66
169 -16 7 -88 11 -194 11 l-169 0 -20 -27z"/>
<path d="M3071 3535 c4 -68 19 -78 19 -12 0 33 -4 57 -10 57 -7 0 -10 -19 -9
-45z"/>
<path d="M12295 3477 c-9 -52 -15 -103 -12 -113 3 -13 5 -10 6 9 0 16 5 26 10
23 9 -6 27 162 18 170 -3 3 -13 -37 -22 -89z"/>
<path d="M7346 3505 c17 -13 17 -14 2 -15 -35 0 -17 -20 18 -20 29 0 35 3 30
16 -3 9 -6 19 -6 22 0 4 -14 8 -32 9 -29 2 -30 1 -12 -12z"/>
<path d="M10620 3255 c0 -15 98 -71 108 -61 3 3 -1 6 -9 7 -8 1 2 5 21 9 20 5
55 4 83 -2 27 -5 50 -8 53 -5 3 2 -22 10 -55 16 -33 7 -86 21 -117 31 -68 24
-84 25 -84 5z"/>
<path d="M10750 3176 c0 -2 7 -7 16 -10 8 -3 12 -2 9 4 -6 10 -25 14 -25 6z"/>
<path d="M10844 3138 l-19 -23 23 19 c21 18 27 26 19 26 -2 0 -12 -10 -23 -22z"/>
<path d="M8123 3053 c32 -2 81 -2 110 0 29 2 3 3 -58 3 -60 0 -84 -1 -52 -3z"/>
<path d="M12320 3001 c0 -6 4 -13 10 -16 6 -3 7 1 4 9 -7 18 -14 21 -14 7z"/>
<path d="M3053 2888 c-28 -9 -33 -16 -39 -55 -3 -24 -4 -46 -1 -49 2 -3 39 -2
81 2 l76 7 0 29 c0 22 -4 29 -14 25 -8 -3 -18 2 -22 11 -6 14 -9 11 -14 -13
-7 -28 -8 -27 -9 13 -1 45 -4 47 -58 30z"/>
<path d="M2910 2838 c0 -6 -3 -8 -7 -5 -3 4 -13 1 -21 -6 -12 -9 -16 -9 -19 1
-3 6 -11 12 -18 12 -12 0 -32 -86 -22 -96 3 -3 25 0 51 7 46 11 46 11 46 55 0
24 -2 44 -5 44 -3 0 -5 -5 -5 -12z"/>
<path d="M1690 2707 c7 -10 31 -27 52 -38 33 -17 38 -24 39 -57 2 -31 3 -33 6
-9 3 20 9 27 19 23 34 -13 271 -56 309 -56 23 0 66 -4 96 -10 75 -14 438 -18
443 -5 2 6 1 24 -1 41 -3 17 0 41 6 53 7 11 8 21 4 21 -21 -1 -128 -31 -217
-60 l-99 -32 -136 11 c-229 20 -461 73 -515 118 -20 17 -20 17 -6 0z"/>
<path d="M3053 2703 c-40 -8 -26 -26 15 -19 20 3 43 6 50 6 6 0 12 5 12 10 0
10 -34 11 -77 3z"/>
<path d="M5478 2623 c12 -2 30 -2 40 0 9 3 -1 5 -23 4 -22 0 -30 -2 -17 -4z"/>
<path d="M5588 2623 c12 -2 32 -2 45 0 12 2 2 4 -23 4 -25 0 -35 -2 -22 -4z"/>
<path d="M5760 2620 c19 -4 29 -8 21 -9 -8 0 -11 -4 -8 -7 4 -4 13 -2 21 5 10
8 15 8 18 1 2 -7 10 -5 23 4 18 14 15 15 -45 14 -54 0 -59 -2 -30 -8z"/>
<path d="M2230 2523 c0 -10 5 -25 10 -33 8 -12 10 -9 10 12 0 15 -4 30 -10 33
-5 3 -10 -2 -10 -12z"/>
<path d="M1640 2333 c0 -5 9 -14 20 -21 11 -6 17 -18 14 -26 -3 -8 1 -33 9
-57 l15 -43 3 51 c4 49 2 54 -28 78 -18 14 -33 22 -33 18z"/>
<path d="M1652 1918 c-1 -45 2 -78 8 -78 5 0 7 -6 4 -14 -7 -19 58 -70 108
-85 22 -7 42 -11 44 -8 4 4 -51 29 -87 40 -11 4 -19 23 -23 61 -4 30 -14 60
-22 67 -11 9 -14 9 -16 -2 -1 -8 -4 11 -8 41 -7 55 -7 55 -8 -22z"/>
<path d="M13408 1923 c6 -2 18 -2 25 0 6 3 1 5 -13 5 -14 0 -19 -2 -12 -5z"/>
<path d="M1975 1690 c17 -4 44 -8 60 -8 25 0 24 2 -10 9 -51 10 -92 10 -50 -1z"/>
<path d="M2115 1669 c22 -4 54 -8 70 -7 29 0 29 0 5 8 -14 4 -45 8 -70 8 l-45
0 40 -9z"/>
<path d="M2298 1653 c12 -2 30 -2 40 0 9 3 -1 5 -23 4 -22 0 -30 -2 -17 -4z"/>
<path d="M2711 1554 c19 -23 95 -53 200 -78 114 -27 292 -50 330 -43 15 3 8 5
-18 6 -135 4 -451 80 -478 115 -5 7 -18 13 -27 13 -13 0 -15 -4 -7 -13z"/>
</g>
</svg>
